<?xml version="1.0" standalone="no"?>
<!DOCTYPE svg PUBLIC "-//W3C//DTD SVG 20010904//EN"
 "http://www.w3.org/TR/2001/REC-SVG-20010904/DTD/svg10.dtd">
<svg version="1.0" xmlns="http://www.w3.org/2000/svg"
 width="260.000000pt" height="240.000000pt" viewBox="0 0 260.000000 240.000000"
 preserveAspectRatio="xMidYMid meet">

<g transform="translate(0.000000,240.000000) scale(0.100000,-0.100000)"
fill="#000000" stroke="none">
<path d="M1318 2327 c-9 -7 -294 -476 -633 -1041 -646 -1076 -631 -1048 -589
-1090 14 -14 141 -16 1243 -16 1177 0 1229 1 1244 18 10 10 17 30 17 44 0 16
-102 202 -258 470 -142 243 -397 682 -567 973 -385 663 -372 642 -391 649 -24
9 -47 7 -66 -7z m566 -1099 c284 -489 519 -895 522 -903 5 -13 -116 -15 -1065
-15 -773 0 -1071 3 -1071 11 0 10 1048 1764 1073 1797 6 7 14 9 18 5 4 -4 239
-407 523 -895z"/>
<path d="M1304 1910 c-12 -4 -30 -20 -41 -34 -20 -25 -21 -45 -28 -549 -6
-408 -5 -529 5 -548 32 -62 106 -78 157 -35 26 23 28 31 34 123 4 54 7 297 8
541 1 488 2 479 -61 501 -36 13 -45 13 -74 1z"/>
<path d="M1283 641 c-140 -65 -95 -275 59 -275 82 0 140 59 141 143 2 108
-103 177 -200 132z"/>
</g>
</svg>
